<mxfile host="app.diagrams.net" modified="2021-05-28T19:06:43.593Z" agent="5.0 (Macintosh; Intel Mac OS X 10_15_3) AppleWebKit/537.36 (KHTML, like Gecko) Chrome/91.0.4472.77 Safari/537.36" etag="41FNi-FeJkJPFZp3jogu" version="14.7.0" type="github">
  <diagram id="gnNv_D2odrLFK6XRyP6Q" name="Page-1">
    <mxGraphModel dx="1426" dy="803" grid="1" gridSize="10" guides="1" tooltips="1" connect="1" arrows="1" fold="1" page="1" pageScale="1" pageWidth="850" pageHeight="1100" math="0" shadow="0">
      <root>
        <mxCell id="0" />
        <mxCell id="1" parent="0" />
        <mxCell id="n9pc2sRfM0N61Fw1GTal-46" value="" style="whiteSpace=wrap;html=1;aspect=fixed;fillColor=none;" vertex="1" parent="1">
          <mxGeometry x="170" y="90" width="560" height="560" as="geometry" />
        </mxCell>
        <mxCell id="n9pc2sRfM0N61Fw1GTal-1" value="Login" style="ellipse;whiteSpace=wrap;html=1;" vertex="1" parent="1">
          <mxGeometry x="200" y="250" width="100" height="40" as="geometry" />
        </mxCell>
        <mxCell id="n9pc2sRfM0N61Fw1GTal-2" value="Register" style="ellipse;whiteSpace=wrap;html=1;" vertex="1" parent="1">
          <mxGeometry x="200" y="140" width="100" height="40" as="geometry" />
        </mxCell>
        <mxCell id="n9pc2sRfM0N61Fw1GTal-3" value="Social Login" style="ellipse;whiteSpace=wrap;html=1;" vertex="1" parent="1">
          <mxGeometry x="200" y="190" width="100" height="40" as="geometry" />
        </mxCell>
        <mxCell id="n9pc2sRfM0N61Fw1GTal-4" value="User Profile" style="ellipse;whiteSpace=wrap;html=1;" vertex="1" parent="1">
          <mxGeometry x="500" y="200" width="100" height="40" as="geometry" />
        </mxCell>
        <mxCell id="n9pc2sRfM0N61Fw1GTal-5" value="" style="endArrow=classic;dashed=1;html=1;exitX=1;exitY=0.5;exitDx=0;exitDy=0;entryX=0;entryY=1;entryDx=0;entryDy=0;endFill=1;" edge="1" parent="1" source="n9pc2sRfM0N61Fw1GTal-1" target="n9pc2sRfM0N61Fw1GTal-4">
          <mxGeometry x="320" y="240" width="50" height="50" as="geometry">
            <mxPoint x="400" y="440" as="sourcePoint" />
            <mxPoint x="450" y="390" as="targetPoint" />
            <mxPoint as="offset" />
          </mxGeometry>
        </mxCell>
        <mxCell id="n9pc2sRfM0N61Fw1GTal-6" value="&lt;&lt; include &gt;&gt;" style="text;strokeColor=none;fillColor=none;align=left;verticalAlign=top;spacingLeft=4;spacingRight=4;overflow=hidden;rotatable=0;points=[[0,0.5],[1,0.5]];portConstraint=eastwest;" vertex="1" parent="1">
          <mxGeometry x="320" y="240" width="95" height="20" as="geometry" />
        </mxCell>
        <mxCell id="n9pc2sRfM0N61Fw1GTal-11" value="" style="endArrow=classic;dashed=1;html=1;exitX=1;exitY=0.5;exitDx=0;exitDy=0;entryX=0;entryY=0.5;entryDx=0;entryDy=0;endFill=1;" edge="1" parent="1" source="n9pc2sRfM0N61Fw1GTal-3" target="n9pc2sRfM0N61Fw1GTal-4">
          <mxGeometry x="330" y="250" width="50" height="50" as="geometry">
            <mxPoint x="310" y="280" as="sourcePoint" />
            <mxPoint x="435" y="260" as="targetPoint" />
            <mxPoint as="offset" />
          </mxGeometry>
        </mxCell>
        <mxCell id="n9pc2sRfM0N61Fw1GTal-12" value="" style="endArrow=classic;dashed=1;html=1;exitX=1;exitY=0.5;exitDx=0;exitDy=0;entryX=0;entryY=0;entryDx=0;entryDy=0;endFill=1;" edge="1" parent="1" source="n9pc2sRfM0N61Fw1GTal-2" target="n9pc2sRfM0N61Fw1GTal-4">
          <mxGeometry x="340" y="260" width="50" height="50" as="geometry">
            <mxPoint x="320" y="290" as="sourcePoint" />
            <mxPoint x="445" y="270" as="targetPoint" />
            <mxPoint as="offset" />
          </mxGeometry>
        </mxCell>
        <mxCell id="n9pc2sRfM0N61Fw1GTal-13" value="&lt;&lt; include &gt;&gt;" style="text;strokeColor=none;fillColor=none;align=left;verticalAlign=top;spacingLeft=4;spacingRight=4;overflow=hidden;rotatable=0;points=[[0,0.5],[1,0.5]];portConstraint=eastwest;" vertex="1" parent="1">
          <mxGeometry x="340" y="190" width="95" height="20" as="geometry" />
        </mxCell>
        <mxCell id="n9pc2sRfM0N61Fw1GTal-15" value="&lt;&lt; include &gt;&gt;" style="text;strokeColor=none;fillColor=none;align=left;verticalAlign=top;spacingLeft=4;spacingRight=4;overflow=hidden;rotatable=0;points=[[0,0.5],[1,0.5]];portConstraint=eastwest;" vertex="1" parent="1">
          <mxGeometry x="380" y="160" width="95" height="20" as="geometry" />
        </mxCell>
        <mxCell id="n9pc2sRfM0N61Fw1GTal-16" value="profile list" style="ellipse;whiteSpace=wrap;html=1;fillColor=none;" vertex="1" parent="1">
          <mxGeometry x="425" y="310" width="95" height="40" as="geometry" />
        </mxCell>
        <mxCell id="n9pc2sRfM0N61Fw1GTal-17" value="Search User profiles" style="ellipse;whiteSpace=wrap;html=1;fillColor=none;" vertex="1" parent="1">
          <mxGeometry x="210" y="320" width="100" height="50" as="geometry" />
        </mxCell>
        <mxCell id="n9pc2sRfM0N61Fw1GTal-18" value="" style="endArrow=classic;dashed=1;html=1;exitX=1;exitY=0.5;exitDx=0;exitDy=0;entryX=0;entryY=0.5;entryDx=0;entryDy=0;endFill=1;" edge="1" parent="1" source="n9pc2sRfM0N61Fw1GTal-17">
          <mxGeometry x="325" y="320" width="50" height="50" as="geometry">
            <mxPoint x="305" y="350" as="sourcePoint" />
            <mxPoint x="430" y="330" as="targetPoint" />
            <mxPoint as="offset" />
          </mxGeometry>
        </mxCell>
        <mxCell id="n9pc2sRfM0N61Fw1GTal-19" value="&lt;&lt; include &gt;&gt;" style="text;strokeColor=none;fillColor=none;align=left;verticalAlign=top;spacingLeft=4;spacingRight=4;overflow=hidden;rotatable=0;points=[[0,0.5],[1,0.5]];portConstraint=eastwest;" vertex="1" parent="1">
          <mxGeometry x="310" y="310" width="95" height="20" as="geometry" />
        </mxCell>
        <mxCell id="n9pc2sRfM0N61Fw1GTal-20" value="View Profile" style="ellipse;whiteSpace=wrap;html=1;fillColor=none;" vertex="1" parent="1">
          <mxGeometry x="220" y="380" width="100" height="50" as="geometry" />
        </mxCell>
        <mxCell id="n9pc2sRfM0N61Fw1GTal-21" value="Block Profile" style="ellipse;whiteSpace=wrap;html=1;fillColor=none;" vertex="1" parent="1">
          <mxGeometry x="425" y="370" width="100" height="50" as="geometry" />
        </mxCell>
        <mxCell id="n9pc2sRfM0N61Fw1GTal-22" value="" style="endArrow=classic;dashed=1;html=1;exitX=0;exitY=0.5;exitDx=0;exitDy=0;entryX=1;entryY=0.5;entryDx=0;entryDy=0;endFill=1;" edge="1" parent="1" source="n9pc2sRfM0N61Fw1GTal-21" target="n9pc2sRfM0N61Fw1GTal-20">
          <mxGeometry x="335" y="330" width="50" height="50" as="geometry">
            <mxPoint x="320" y="355" as="sourcePoint" />
            <mxPoint x="440" y="340" as="targetPoint" />
            <mxPoint as="offset" />
          </mxGeometry>
        </mxCell>
        <mxCell id="n9pc2sRfM0N61Fw1GTal-23" value="&lt;&lt; extend &gt;&gt;" style="text;strokeColor=none;fillColor=none;align=left;verticalAlign=top;spacingLeft=4;spacingRight=4;overflow=hidden;rotatable=0;points=[[0,0.5],[1,0.5]];portConstraint=eastwest;" vertex="1" parent="1">
          <mxGeometry x="320" y="380" width="95" height="20" as="geometry" />
        </mxCell>
        <mxCell id="n9pc2sRfM0N61Fw1GTal-24" value="Send message" style="ellipse;whiteSpace=wrap;html=1;fillColor=none;" vertex="1" parent="1">
          <mxGeometry x="270" y="430" width="100" height="50" as="geometry" />
        </mxCell>
        <mxCell id="n9pc2sRfM0N61Fw1GTal-25" value="Online Payment" style="ellipse;whiteSpace=wrap;html=1;fillColor=none;" vertex="1" parent="1">
          <mxGeometry x="280" y="490" width="100" height="50" as="geometry" />
        </mxCell>
        <mxCell id="n9pc2sRfM0N61Fw1GTal-26" value="Email Invoice" style="ellipse;whiteSpace=wrap;html=1;fillColor=none;" vertex="1" parent="1">
          <mxGeometry x="500" y="480" width="100" height="50" as="geometry" />
        </mxCell>
        <mxCell id="n9pc2sRfM0N61Fw1GTal-27" value="&lt;&lt; include &gt;&gt;" style="text;strokeColor=none;fillColor=none;align=left;verticalAlign=top;spacingLeft=4;spacingRight=4;overflow=hidden;rotatable=0;points=[[0,0.5],[1,0.5]];portConstraint=eastwest;" vertex="1" parent="1">
          <mxGeometry x="390" y="480" width="95" height="20" as="geometry" />
        </mxCell>
        <mxCell id="n9pc2sRfM0N61Fw1GTal-28" value="" style="endArrow=classic;dashed=1;html=1;exitX=1;exitY=0.5;exitDx=0;exitDy=0;entryX=0;entryY=0.5;entryDx=0;entryDy=0;endFill=1;" edge="1" parent="1" source="n9pc2sRfM0N61Fw1GTal-25" target="n9pc2sRfM0N61Fw1GTal-26">
          <mxGeometry x="475" y="480" width="50" height="50" as="geometry">
            <mxPoint x="460" y="505" as="sourcePoint" />
            <mxPoint x="580" y="490" as="targetPoint" />
            <mxPoint as="offset" />
          </mxGeometry>
        </mxCell>
        <mxCell id="n9pc2sRfM0N61Fw1GTal-29" value="Reset Password" style="ellipse;whiteSpace=wrap;html=1;" vertex="1" parent="1">
          <mxGeometry x="580" y="305" width="110" height="50" as="geometry" />
        </mxCell>
        <mxCell id="n9pc2sRfM0N61Fw1GTal-30" value="" style="endArrow=classic;dashed=1;html=1;exitX=0.5;exitY=1;exitDx=0;exitDy=0;entryX=0;entryY=0.5;entryDx=0;entryDy=0;endFill=1;" edge="1" parent="1" source="n9pc2sRfM0N61Fw1GTal-4" target="n9pc2sRfM0N61Fw1GTal-29">
          <mxGeometry x="335" y="330" width="50" height="50" as="geometry">
            <mxPoint x="320" y="355" as="sourcePoint" />
            <mxPoint x="440" y="340" as="targetPoint" />
            <mxPoint as="offset" />
          </mxGeometry>
        </mxCell>
        <mxCell id="n9pc2sRfM0N61Fw1GTal-31" value="&lt;&lt; include &gt;&gt;" style="text;strokeColor=none;fillColor=none;align=left;verticalAlign=top;spacingLeft=4;spacingRight=4;overflow=hidden;rotatable=0;points=[[0,0.5],[1,0.5]];portConstraint=eastwest;" vertex="1" parent="1">
          <mxGeometry x="560" y="260" width="95" height="20" as="geometry" />
        </mxCell>
        <mxCell id="n9pc2sRfM0N61Fw1GTal-32" value="Send Email" style="ellipse;whiteSpace=wrap;html=1;fillColor=none;" vertex="1" parent="1">
          <mxGeometry x="600" y="410" width="100" height="50" as="geometry" />
        </mxCell>
        <mxCell id="n9pc2sRfM0N61Fw1GTal-34" value="" style="endArrow=none;html=1;entryX=0.5;entryY=0;entryDx=0;entryDy=0;exitX=0.5;exitY=1;exitDx=0;exitDy=0;" edge="1" parent="1" source="n9pc2sRfM0N61Fw1GTal-29" target="n9pc2sRfM0N61Fw1GTal-32">
          <mxGeometry width="50" height="50" relative="1" as="geometry">
            <mxPoint x="640" y="320" as="sourcePoint" />
            <mxPoint x="690" y="270" as="targetPoint" />
          </mxGeometry>
        </mxCell>
        <mxCell id="n9pc2sRfM0N61Fw1GTal-36" value="Report" style="ellipse;whiteSpace=wrap;html=1;" vertex="1" parent="1">
          <mxGeometry x="230" y="540" width="100" height="40" as="geometry" />
        </mxCell>
        <mxCell id="n9pc2sRfM0N61Fw1GTal-37" value="User" style="shape=umlActor;verticalLabelPosition=bottom;verticalAlign=top;html=1;outlineConnect=0;fillColor=none;" vertex="1" parent="1">
          <mxGeometry x="50" y="300" width="30" height="60" as="geometry" />
        </mxCell>
        <mxCell id="n9pc2sRfM0N61Fw1GTal-38" value="" style="endArrow=none;html=1;entryX=0;entryY=0.5;entryDx=0;entryDy=0;" edge="1" parent="1" target="n9pc2sRfM0N61Fw1GTal-2">
          <mxGeometry width="50" height="50" relative="1" as="geometry">
            <mxPoint x="80" y="300" as="sourcePoint" />
            <mxPoint x="130" y="250" as="targetPoint" />
          </mxGeometry>
        </mxCell>
        <mxCell id="n9pc2sRfM0N61Fw1GTal-39" value="" style="endArrow=none;html=1;entryX=0;entryY=0.5;entryDx=0;entryDy=0;" edge="1" parent="1" target="n9pc2sRfM0N61Fw1GTal-3">
          <mxGeometry width="50" height="50" relative="1" as="geometry">
            <mxPoint x="90" y="310" as="sourcePoint" />
            <mxPoint x="210" y="170" as="targetPoint" />
          </mxGeometry>
        </mxCell>
        <mxCell id="n9pc2sRfM0N61Fw1GTal-40" value="" style="endArrow=none;html=1;entryX=0;entryY=0.5;entryDx=0;entryDy=0;" edge="1" parent="1" target="n9pc2sRfM0N61Fw1GTal-1">
          <mxGeometry width="50" height="50" relative="1" as="geometry">
            <mxPoint x="100" y="320" as="sourcePoint" />
            <mxPoint x="210" y="220" as="targetPoint" />
          </mxGeometry>
        </mxCell>
        <mxCell id="n9pc2sRfM0N61Fw1GTal-41" value="" style="endArrow=none;html=1;entryX=0;entryY=0.5;entryDx=0;entryDy=0;" edge="1" parent="1" target="n9pc2sRfM0N61Fw1GTal-17">
          <mxGeometry width="50" height="50" relative="1" as="geometry">
            <mxPoint x="100" y="330" as="sourcePoint" />
            <mxPoint x="200" y="340" as="targetPoint" />
          </mxGeometry>
        </mxCell>
        <mxCell id="n9pc2sRfM0N61Fw1GTal-42" value="" style="endArrow=none;html=1;entryX=0;entryY=0.5;entryDx=0;entryDy=0;" edge="1" parent="1" target="n9pc2sRfM0N61Fw1GTal-20">
          <mxGeometry width="50" height="50" relative="1" as="geometry">
            <mxPoint x="100" y="350" as="sourcePoint" />
            <mxPoint x="230" y="240" as="targetPoint" />
          </mxGeometry>
        </mxCell>
        <mxCell id="n9pc2sRfM0N61Fw1GTal-43" value="" style="endArrow=none;html=1;entryX=0;entryY=0.5;entryDx=0;entryDy=0;" edge="1" parent="1" target="n9pc2sRfM0N61Fw1GTal-24">
          <mxGeometry width="50" height="50" relative="1" as="geometry">
            <mxPoint x="90" y="380" as="sourcePoint" />
            <mxPoint x="240" y="250" as="targetPoint" />
          </mxGeometry>
        </mxCell>
        <mxCell id="n9pc2sRfM0N61Fw1GTal-44" value="" style="endArrow=none;html=1;entryX=0;entryY=0.5;entryDx=0;entryDy=0;" edge="1" parent="1" target="n9pc2sRfM0N61Fw1GTal-25">
          <mxGeometry width="50" height="50" relative="1" as="geometry">
            <mxPoint x="80" y="390" as="sourcePoint" />
            <mxPoint x="220" y="490" as="targetPoint" />
          </mxGeometry>
        </mxCell>
        <mxCell id="n9pc2sRfM0N61Fw1GTal-45" value="" style="endArrow=none;html=1;entryX=0;entryY=0;entryDx=0;entryDy=0;" edge="1" parent="1" target="n9pc2sRfM0N61Fw1GTal-36">
          <mxGeometry width="50" height="50" relative="1" as="geometry">
            <mxPoint x="70" y="400" as="sourcePoint" />
            <mxPoint x="260" y="270" as="targetPoint" />
          </mxGeometry>
        </mxCell>
      </root>
    </mxGraphModel>
  </diagram>
</mxfile>
